<svg xmlns="http://www.w3.org/2000/svg" width="22" height="15.404" viewBox="0 0 22 15.404"><defs><style>.a{fill:#1a1818;}</style></defs><path class="a" d="M-910.474,128.553a2.756,2.756,0,0,0-1.939-1.939c-1.722-.471-8.608-.471-8.608-.471s-6.886,0-8.608.453a2.812,2.812,0,0,0-1.939,1.957,29.054,29.054,0,0,0-.453,5.292,28.946,28.946,0,0,0,.453,5.292,2.757,2.757,0,0,0,1.939,1.939c1.74.471,8.608.471,8.608.471s6.886,0,8.608-.453a2.756,2.756,0,0,0,1.939-1.939,29.062,29.062,0,0,0,.453-5.292A27.557,27.557,0,0,0-910.474,128.553Zm-12.74,8.59v-6.6l5.727,3.3Z" transform="translate(932.021 -126.143)"/></svg>