<svg xmlns="http://www.w3.org/2000/svg" width="24" height="16.639" viewBox="0 0 24 16.639"><g transform="translate(0 -78.521)"><g transform="translate(15.101 89.109)"><path d="M325.176,304.4a3.025,3.025,0,1,0,3.025,3.025A3.029,3.029,0,0,0,325.176,304.4Zm0,4.538a1.513,1.513,0,1,1,1.513-1.513A1.514,1.514,0,0,1,325.176,308.941Z" transform="translate(-322.151 -304.403)"/></g><g transform="translate(4.765 89.109)"><path d="M104.672,304.4a3.025,3.025,0,1,0,3.025,3.025A3.029,3.029,0,0,0,104.672,304.4Zm0,4.538a1.513,1.513,0,1,1,1.513-1.513A1.514,1.514,0,0,1,104.672,308.941Z" transform="translate(-101.647 -304.403)"/></g><g transform="translate(15.504 80.034)"><path d="M335.415,111.206a.757.757,0,0,0-.676-.416h-3.983V112.3h3.517l2.059,4.1,1.352-.68Z" transform="translate(-330.756 -110.79)"/></g><g transform="translate(10.134 91.403)"><rect width="5.723" height="1.513"/></g><g transform="translate(2.143 91.403)"><path d="M49.093,353.345H46.471a.756.756,0,1,0,0,1.513h2.622a.756.756,0,1,0,0-1.513Z" transform="translate(-45.715 -353.345)"/></g><g transform="translate(2.143 78.521)"><path d="M67.413,86.78l-1.488-1.916a.755.755,0,0,0-.6-.292h-5.5V79.277a.756.756,0,0,0-.756-.756H46.471a.756.756,0,1,0,0,1.513H58.32v5.294a.756.756,0,0,0,.756.756h5.882l1.1,1.419v3.9H63.967a.756.756,0,0,0,0,1.513h2.849a.756.756,0,0,0,.756-.756V87.244A.757.757,0,0,0,67.413,86.78Z" transform="translate(-45.715 -78.521)"/></g><g transform="translate(1.235 87.571)"><path d="M30.588,271.6H27.109a.756.756,0,0,0,0,1.513h3.479a.756.756,0,0,0,0-1.513Z" transform="translate(-26.353 -271.597)"/></g><g transform="translate(0 84.597)"><path d="M7.21,208.134H.756a.756.756,0,0,0,0,1.513H7.21a.756.756,0,0,0,0-1.513Z" transform="translate(0 -208.134)"/></g><g transform="translate(1.235 81.622)"><path d="M33.563,144.672H27.109a.756.756,0,0,0,0,1.513h6.454a.756.756,0,0,0,0-1.513Z" transform="translate(-26.353 -144.672)"/></g></g></svg>