<svg xmlns="http://www.w3.org/2000/svg" width="16.95" height="22.031" viewBox="0 0 16.95 22.031">
  <path id="Icon_awesome-pinterest-p" data-name="Icon awesome-pinterest-p" d="M9,.457c-4.529,0-9,3.019-9,7.905,0,3.107,1.748,4.873,2.807,4.873.437,0,.689-1.218.689-1.563,0-.41-1.046-1.284-1.046-2.993a5.965,5.965,0,0,1,6.2-6.065c3.006,0,5.231,1.708,5.231,4.847,0,2.344-.94,6.74-3.986,6.74a1.96,1.96,0,0,1-2.039-1.933c0-1.668,1.165-3.284,1.165-5.005,0-2.922-4.145-2.392-4.145,1.139A5.186,5.186,0,0,0,5.3,10.64c-.609,2.622-1.854,6.528-1.854,9.23,0,.834.119,1.655.2,2.489.15.168.075.15.3.066C6.171,19.38,6.091,18.784,7.1,14.8a3.58,3.58,0,0,0,3.059,1.589c4.688,0,6.793-4.568,6.793-8.687C16.95,3.317,13.162.457,9,.457Z" transform="translate(0 -0.457)" fill="#fff"/>
</svg>
