<svg xmlns="http://www.w3.org/2000/svg" width="32" height="24" viewBox="0 0 32 24">
  <path id="Icon_awesome-barcode" data-name="Icon awesome-barcode" d="M0,29V5H1.125V29Zm1.679-.017V5H2.25V28.983Zm1.7,0V5h.554V28.983Zm2.8,0V5h.554V28.983Zm2.25,0V5H9.536V28.983Zm2.8,0V5h.554V28.983Zm1.125,0V5h.554V28.983h-.554Zm1.125,0V5h.554V28.983Zm2.232,0V5h1.125V28.983Zm2.8,0V5h1.125V28.983Zm2.25,0V5h1.125V28.983Zm2.25,0V5h1.125V28.983Zm1.679,0V5h1.125V28.983Zm2.821,0V5H29.2V28.983Zm2.232,0V5h.571V28.983H29.75ZM30.875,29V5H32V29Z" transform="translate(0 -5)" fill="#333"/>
</svg>
