<svg xmlns="http://www.w3.org/2000/svg" width="20" height="18.002" viewBox="0 0 20 18.002"><defs><style>.a{fill:#1a1818;}</style></defs><path class="a" d="M15.254,2.343A6.119,6.119,0,0,0,11,3.692,6.217,6.217,0,0,0,2.487,4.4a6.13,6.13,0,0,0,.407,8.432l6.84,6.747a2.067,2.067,0,0,0,1.373.75,1.006,1.006,0,0,0,.72-.316L19.1,12.835A6.07,6.07,0,0,0,15.254,2.343Zm2.907,9.564L11,18.949a1.994,1.994,0,0,1-.353-.3L3.84,11.907a4.762,4.762,0,0,1,2.98-8.254h.3a4.809,4.809,0,0,1,3.214,1.2,1.017,1.017,0,0,0,1.333,0,4.792,4.792,0,0,1,6.494,7.049Z" transform="translate(-1.001 -2.33)"/></svg>