<svg xmlns="http://www.w3.org/2000/svg" width="24" height="17.6" viewBox="0 0 24 17.6"><defs><style>.a{fill:#1a1818;}</style></defs><g transform="translate(-1 -5)"><path class="a" d="M8.08,12.35h8a1,1,0,0,0,0-2h-8a1,1,0,1,0,0,2Z" transform="translate(-2.028 -1.213)"/><path class="a" d="M7.92,16.48h3.16a1,1,0,0,0,0-2H7.92a1,1,0,0,0,0,2Z" transform="translate(-1.513 -2.149)"/><path class="a" d="M21.328,5H4.672A3.68,3.68,0,0,0,1,8.672V18.928A3.68,3.68,0,0,0,4.672,22.6H21.328A3.68,3.68,0,0,0,25,18.928V8.672A3.68,3.68,0,0,0,21.328,5ZM4.672,6.6H21.328A2.072,2.072,0,0,1,23.4,8.672v8.072H2.6V8.672A2.072,2.072,0,0,1,4.672,6.6ZM21.328,21H4.672A2.072,2.072,0,0,1,2.6,18.928v-.584H23.4v.584A2.072,2.072,0,0,1,21.328,21Z" transform="translate(0 0)"/></g></svg>