<svg xmlns="http://www.w3.org/2000/svg" width="54.591" height="42.478" viewBox="0 0 54.591 42.478"><defs><style>.a{fill:#fff;}</style></defs><path class="a" d="M48.733,24H15.667A4.279,4.279,0,0,0,11.4,28.267v1.6a1.067,1.067,0,0,0,2.133,0v-1.6a2.677,2.677,0,0,1,.107-.64l11.947,10.24L13.64,48.107a2.677,2.677,0,0,1-.107-.64v-1.6a1.067,1.067,0,1,0-2.133,0v1.6a4.279,4.279,0,0,0,4.267,4.267H48.733A4.279,4.279,0,0,0,53,47.467v-19.2A4.279,4.279,0,0,0,48.733,24ZM15.24,26.187a1.04,1.04,0,0,1,.427-.053H48.733a1.04,1.04,0,0,1,.427.053L32.893,40.107a1.121,1.121,0,0,1-1.387,0ZM48.733,49.6H15.667a1.04,1.04,0,0,1-.427-.053l12-10.293,2.88,2.507a3.1,3.1,0,0,0,4.16,0l2.88-2.507,12,10.293A1.04,1.04,0,0,1,48.733,49.6Zm2.133-2.133a2.677,2.677,0,0,1-.107.64L38.813,37.867,50.76,27.627a2.677,2.677,0,0,1,.107.64ZM8.2,35.2a1.07,1.07,0,0,1,1.067-1.067h6.4a1.067,1.067,0,0,1,0,2.133h-6.4A1.07,1.07,0,0,1,8.2,35.2Zm7.467,6.4h-9.6a1.067,1.067,0,1,1,0-2.133h9.6a1.067,1.067,0,0,1,0,2.133Z" transform="translate(-12.907 -4.426) rotate(-20)"/></svg>