<svg xmlns="http://www.w3.org/2000/svg" width="20" height="20.004" viewBox="0 0 20 20.004"><defs><style>.a{fill:#1a1818;}</style></defs><g transform="translate(-0.449)"><path class="a" d="M20.4,5.881a7.31,7.31,0,0,0-.465-2.427A5.124,5.124,0,0,0,17.006.528,7.328,7.328,0,0,0,14.579.063C13.508.012,13.168,0,10.452,0S7.4.012,6.33.059A7.312,7.312,0,0,0,3.9.524,4.881,4.881,0,0,0,2.129,1.68,4.925,4.925,0,0,0,.976,3.451,7.329,7.329,0,0,0,.511,5.877C.46,6.948.449,7.288.449,10S.46,13.06.507,14.127a7.309,7.309,0,0,0,.465,2.427A5.123,5.123,0,0,0,3.9,19.48a7.329,7.329,0,0,0,2.427.465c1.067.047,1.407.059,4.123.059s3.056-.012,4.123-.059A7.308,7.308,0,0,0,17,19.48a5.117,5.117,0,0,0,2.927-2.927,7.334,7.334,0,0,0,.465-2.427c.047-1.067.059-1.407.059-4.123s0-3.056-.051-4.123Zm-1.8,8.167a5.483,5.483,0,0,1-.344,1.856,3.318,3.318,0,0,1-1.9,1.9,5.5,5.5,0,0,1-1.856.344c-1.055.047-1.372.059-4.041.059s-2.989-.012-4.041-.059A5.48,5.48,0,0,1,4.56,17.8a3.078,3.078,0,0,1-1.149-.746,3.11,3.11,0,0,1-.746-1.149,5.5,5.5,0,0,1-.344-1.856c-.047-1.055-.059-1.372-.059-4.041s.012-2.989.059-4.041a5.48,5.48,0,0,1,.344-1.856,3.04,3.04,0,0,1,.75-1.149A3.105,3.105,0,0,1,4.564,2.22,5.506,5.506,0,0,1,6.42,1.876c1.055-.047,1.372-.059,4.041-.059s2.989.012,4.041.059a5.483,5.483,0,0,1,1.856.344,3.076,3.076,0,0,1,1.149.746,3.109,3.109,0,0,1,.746,1.149A5.505,5.505,0,0,1,18.6,5.971c.047,1.055.059,1.372.059,4.041s-.012,2.982-.059,4.037Zm0,0" transform="translate(0 0)"/><path class="a" d="M130.088,124.5a5.139,5.139,0,1,0,5.139,5.139A5.14,5.14,0,0,0,130.088,124.5Zm0,8.472a3.333,3.333,0,1,1,3.333-3.333A3.334,3.334,0,0,1,130.088,132.972Zm0,0" transform="translate(-119.635 -119.635)"/><path class="a" d="M364.849,89.8a1.2,1.2,0,1,1-1.2-1.2A1.2,1.2,0,0,1,364.849,89.8Zm0,0" transform="translate(-347.855 -85.139)"/></g></svg>