<svg xmlns="http://www.w3.org/2000/svg" width="22.03" height="22.026" viewBox="0 0 22.03 22.026">
  <path id="Icon_awesome-instagram" data-name="Icon awesome-instagram" d="M11.012,7.6a5.647,5.647,0,1,0,5.647,5.647A5.638,5.638,0,0,0,11.012,7.6Zm0,9.318a3.671,3.671,0,1,1,3.671-3.671,3.678,3.678,0,0,1-3.671,3.671Zm7.2-9.549A1.317,1.317,0,1,1,16.89,6.055,1.314,1.314,0,0,1,18.208,7.372Zm3.74,1.337a6.518,6.518,0,0,0-1.779-4.615,6.561,6.561,0,0,0-4.615-1.779c-1.818-.1-7.269-.1-9.087,0A6.552,6.552,0,0,0,1.851,4.089,6.54,6.54,0,0,0,.072,8.7c-.1,1.818-.1,7.269,0,9.087a6.518,6.518,0,0,0,1.779,4.615,6.569,6.569,0,0,0,4.615,1.779c1.818.1,7.269.1,9.087,0a6.518,6.518,0,0,0,4.615-1.779,6.561,6.561,0,0,0,1.779-4.615c.1-1.818.1-7.264,0-9.082ZM19.6,19.743A3.717,3.717,0,0,1,17.5,21.837c-1.45.575-4.89.442-6.492.442s-5.047.128-6.492-.442a3.717,3.717,0,0,1-2.094-2.094c-.575-1.45-.442-4.89-.442-6.492S1.856,8.2,2.426,6.758A3.717,3.717,0,0,1,4.52,4.664c1.45-.575,4.89-.442,6.492-.442s5.047-.128,6.492.442A3.717,3.717,0,0,1,19.6,6.758c.575,1.45.442,4.89.442,6.492S20.174,18.3,19.6,19.743Z" transform="translate(0.005 -2.238)" fill="#fff"/>
</svg>
