<svg xmlns="http://www.w3.org/2000/svg" width="54" height="32" viewBox="0 0 54 32"><defs><style>.a,.c{fill:#fff;}.b{fill:#b3131b;}.b,.c{fill-rule:evenodd;}</style></defs><rect class="a" width="54" height="32" rx="2"/><g transform="translate(-1178.74 -268.692)"><path class="b" d="M1195.642,274.692h-4.871c-2.152.1-3.911.969-4.42,2.756-.265.932-.411,1.956-.618,2.923-1.053,4.914-1.987,9.964-2.994,14.78h37.923c2.932,0,4.945-.62,5.489-2.947.253-1.081.495-2.305.737-3.493.943-4.63,1.886-9.261,2.851-14.019Z" transform="translate(0)"/><path class="c" d="M1235.94,341.811c.2-.14.466-.779.167-1.046a.566.566,0,0,0-.475-.071.575.575,0,0,0-.4.214c-.129.176-.247.706-.048.9S1235.81,341.9,1235.94,341.811Zm-2.9-1.046c-.146.947-.31,1.876-.475,2.8-1.059.011-2.139.052-3.16-.024.193-.908.331-1.871.523-2.78h-1.141c-.408,2.316-.78,4.67-1.235,6.938h1.164c.183-1.164.353-2.34.594-3.445a28.391,28.391,0,0,1,3.136.024c-.2,1.15-.434,2.258-.618,3.422h1.164c.374-2.351.768-4.681,1.236-6.938Zm16.467,2a1.568,1.568,0,0,0-1.948.832c.075-.258.106-.56.166-.832h-.9c-.221,1.712-.546,3.319-.855,4.942h1.022a19.43,19.43,0,0,1,.523-3.184,1.425,1.425,0,0,1,1.877-1.022C1249.4,343.226,1249.48,343.019,1249.507,342.762Zm.57,3.778a2.488,2.488,0,0,1-.1-.95,3.324,3.324,0,0,1,.689-1.9,2.5,2.5,0,0,1,2.424-.143c.026-.283.083-.535.119-.808a3.863,3.863,0,0,0-3.374.642,4.058,4.058,0,0,0-.808,3.374c.368,1.2,2.016,1.269,3.35.808.059-.242.09-.512.142-.76C1251.8,347.18,1250.4,347.377,1250.078,346.539Zm11.477-3.754a1.561,1.561,0,0,0-1.948.76c.083-.233.088-.545.166-.784h-.9q-.365,2.546-.879,4.942h1.045a11.181,11.181,0,0,1,.238-1.782c.219-1.372.539-2.876,2.139-2.424C1261.465,343.266,1261.487,343,1261.555,342.785Zm-26.66-.024c-.028,0-.026.038-.024.071-.225,1.684-.53,3.288-.855,4.871h1.022c.246-1.7.527-3.354.879-4.942Zm8.982-.1a2.668,2.668,0,0,0-1.806.737,4.127,4.127,0,0,0-.855,2.994c.184,1.646,2.234,1.587,3.873,1.188.028-.289.1-.536.143-.808a3.259,3.259,0,0,1-2.543.166c-.524-.331-.527-1.171-.356-1.9,1.1-.035,2.247-.028,3.35,0a3.518,3.518,0,0,0,.1-1.592C1245.546,342.776,1244.718,342.6,1243.876,342.666Zm.974,1.806h-2.4a1.416,1.416,0,0,1,1.354-1.188C1244.541,343.256,1245.068,343.554,1244.85,344.472ZM1240,342.762a2.7,2.7,0,0,0-2.376.432c0,.016-.011.019-.024.02l.024-.02a.027.027,0,0,0,0,0c.008-.159.064-.269.071-.428h-.879c-.366,2.438-.8,4.807-1.259,7.152h1.022c.148-.914.246-1.877.452-2.733.233.9,1.757.728,2.4.38C1240.759,346.844,1241.782,343.43,1240,342.762Zm-.808,4.016c-.547.579-1.891.57-2-.4a4.845,4.845,0,0,1,.19-1.307c.079-.444.136-.87.214-1.259.538-.657,2.121-.737,2.281.357A3.625,3.625,0,0,1,1239.2,346.777Zm26.161-6.154c-.088.768-.2,1.506-.356,2.21-2.506-.793-4.043,1.051-4.016,3.327a1.79,1.79,0,0,0,.356,1.188,2.311,2.311,0,0,0,2.519.214,1.776,1.776,0,0,0,.356-.356c.066-.083.171-.3.19-.238a5.3,5.3,0,0,0-.095.737h.927a64.692,64.692,0,0,1,1.141-7.081Zm-2.281,6.534c-.688.015-1.03-.411-1.045-1.117-.027-1.236.515-2.609,1.616-2.733a2.68,2.68,0,0,1,1.259.19C1264.56,344.887,1264.684,347.123,1263.075,347.157Zm-8.815-4.4c-.05.282-.128.538-.19.808.6-.151,2.48-.615,2.661.19a1.408,1.408,0,0,1-.119.76c-1.7-.161-3.081.121-3.445,1.331a1.5,1.5,0,0,0,.547,1.83,2.272,2.272,0,0,0,2.637-.737,3.115,3.115,0,0,0-.071.76h.879a13.634,13.634,0,0,1,.261-2.281,9.018,9.018,0,0,0,.285-1.853C1257.63,342.265,1255.469,342.727,1254.26,342.762Zm1.663,3.992c-.526.515-2,.662-1.853-.57.126-1.023,1.24-1.241,2.447-1.093A3.04,3.04,0,0,1,1255.923,346.753Z" transform="translate(-40.678 -59.848)"/></g></svg>