<svg xmlns="http://www.w3.org/2000/svg" width="24" height="24" viewBox="0 0 24 24"><defs><style>.a{fill:#1a1818;}</style></defs><path class="a" d="M18.609,7.564V9.949a.75.75,0,0,1-.75.75H15.474a.75.75,0,1,1,0-1.5h.8a5.113,5.113,0,0,0-9.036.94.75.75,0,0,1-1.4-.547A6.61,6.61,0,0,1,17.109,7.807V7.564a.75.75,0,1,1,1.5,0Zm-.878,5.872a.75.75,0,0,0-.972.425,5.114,5.114,0,0,1-8.981,1.023h.748a.75.75,0,0,0,0-1.5H6.141a.75.75,0,0,0-.75.75V16.52a.75.75,0,0,0,1.5,0v-.327a6.611,6.611,0,0,0,11.266-1.785A.75.75,0,0,0,17.732,13.436ZM24,12A12,12,0,1,1,12,0,12.014,12.014,0,0,1,24,12Zm-1.5,0A10.5,10.5,0,1,0,12,22.5,10.512,10.512,0,0,0,22.5,12Z"/></svg>