<svg xmlns="http://www.w3.org/2000/svg" width="19.846" height="20" viewBox="0 0 19.846 20"><defs><style>.a{fill:#1a1818;}</style></defs><g transform="translate(-1 -1)"><path class="a" d="M7,26.07A2.07,2.07,0,1,0,9.07,24,2.072,2.072,0,0,0,7,26.07Zm2.76,0a.69.69,0,1,1-.69-.69A.691.691,0,0,1,9.76,26.07Z" transform="translate(-1.86 -7.14)"/><path class="a" d="M23.14,26.07a2.07,2.07,0,1,0-2.07,2.07A2.072,2.072,0,0,0,23.14,26.07Zm-2.76,0a.69.69,0,1,1,.69.69A.691.691,0,0,1,20.38,26.07Z" transform="translate(-5.581 -7.14)"/><path class="a" d="M3.139,2.379c.086.814,1.038,9.853,1.185,11.249A2.065,2.065,0,0,0,6.382,15.48H17.134a2.082,2.082,0,0,0,2.024-1.636l1.657-7.729a1.38,1.38,0,0,0-1.35-1.668H4.744l-.3-2.83A.69.69,0,0,0,3.76,1H1.69a.69.69,0,1,0,0,1.379ZM19.465,5.827l-1.657,7.729a.7.7,0,0,1-.675.545H6.382a.688.688,0,0,1-.687-.617L4.889,5.827Z" transform="translate(0 0)"/></g></svg>