<svg xmlns="http://www.w3.org/2000/svg" width="20" height="20" viewBox="0 0 20 20"><defs><style>.a{fill:#1a1818;}</style></defs><g transform="translate(-1 -1)"><path class="a" d="M19.393,27H2.607A1.607,1.607,0,0,1,1,25.393,6.4,6.4,0,0,1,7.393,19h7.213A6.4,6.4,0,0,1,21,25.393,1.607,1.607,0,0,1,19.393,27Zm-12-6.667a5.067,5.067,0,0,0-5.06,5.06.273.273,0,0,0,.273.273H19.393a.273.273,0,0,0,.273-.273,5.067,5.067,0,0,0-5.06-5.06Z" transform="translate(0 -6)"/><path class="a" d="M13.333,11.667a5.333,5.333,0,1,1,5.333-5.333A5.333,5.333,0,0,1,13.333,11.667Zm0-9.333a4,4,0,1,0,4,4A4,4,0,0,0,13.333,2.333Z" transform="translate(-2.333)"/></g></svg>