<svg xmlns="http://www.w3.org/2000/svg" width="22" height="22" viewBox="0 0 22 22">
  <path id="Icon_metro-linkedin" data-name="Icon metro-linkedin" d="M20.875,1.928H6.266a3.706,3.706,0,0,0-3.7,3.7V20.233a3.706,3.706,0,0,0,3.7,3.7H20.875a3.706,3.706,0,0,0,3.7-3.7V5.623a3.706,3.706,0,0,0-3.7-3.7ZM10.821,19.8H8.071V10.178h2.75ZM9.446,8.8a1.375,1.375,0,1,1,1.375-1.375A1.375,1.375,0,0,1,9.446,8.8Zm11,11H17.7V14.3a1.375,1.375,0,0,0-2.75,0v5.5H12.2V10.178h2.75v1.707c.567-.779,1.434-1.707,2.406-1.707a3.279,3.279,0,0,1,3.094,3.438Z" transform="translate(-2.571 -1.928)" fill="#fff"/>
</svg>
