<svg xmlns="http://www.w3.org/2000/svg" width="15" height="10.385" viewBox="0 0 15 10.385">
  <g id="Icon_ionic-ios-mail" data-name="Icon ionic-ios-mail" transform="translate(-3.375 -7.875)">
    <path id="Caminho_14" data-name="Caminho 14" d="M18.252,10.336l-3.88,3.952a.07.07,0,0,0,0,.1l2.715,2.892a.468.468,0,0,1,0,.663.47.47,0,0,1-.663,0l-2.7-2.881a.074.074,0,0,0-.1,0l-.66.671a2.9,2.9,0,0,1-2.07.873,2.961,2.961,0,0,1-2.113-.9l-.635-.645a.074.074,0,0,0-.1,0l-2.7,2.881a.47.47,0,0,1-.663,0,.468.468,0,0,1,0-.663l2.715-2.892a.077.077,0,0,0,0-.1L3.5,10.336a.071.071,0,0,0-.123.05v7.907a1.157,1.157,0,0,0,1.154,1.154H17.221a1.157,1.157,0,0,0,1.154-1.154V10.386A.072.072,0,0,0,18.252,10.336Z" transform="translate(0 -1.188)" fill="#333"/>
    <path id="Caminho_15" data-name="Caminho 15" d="M11.289,14.477a1.96,1.96,0,0,0,1.41-.591l5.657-5.758a1.133,1.133,0,0,0-.714-.252H4.94a1.126,1.126,0,0,0-.714.252l5.657,5.758A1.961,1.961,0,0,0,11.289,14.477Z" transform="translate(-0.414)" fill="#333"/>
  </g>
</svg>
