<svg xmlns="http://www.w3.org/2000/svg" width="54" height="32" viewBox="0 0 54 32"><defs><style>.a{fill:#fff;}.b{fill:#00579f;}.c{fill:#faa61a;}</style></defs><rect class="a" width="54" height="32" rx="2"/><g transform="translate(8 10)"><path class="b" d="M436.585,122.632h-3.078l1.925-11.905h3.078Z" transform="translate(-420.119 -110.511)"/><path class="b" d="M574.413,105.554a7.586,7.586,0,0,0-2.761-.507c-3.04,0-5.181,1.621-5.194,3.939-.025,1.71,1.533,2.66,2.7,3.23,1.191.583,1.6.963,1.6,1.482-.012.8-.962,1.165-1.849,1.165a6.127,6.127,0,0,1-2.888-.633l-.405-.19-.431,2.672a9.369,9.369,0,0,0,3.433.634c3.23,0,5.333-1.6,5.358-4.066.012-1.355-.81-2.394-2.584-3.242-1.077-.545-1.736-.912-1.736-1.469.013-.507.558-1.026,1.773-1.026a5.23,5.23,0,0,1,2.293.456l.278.126.419-2.571Z" transform="translate(-546.787 -105.048)"/><path class="b" d="M795.285,118.414c.253-.684,1.229-3.331,1.229-3.331-.013.025.253-.7.405-1.14l.215,1.026s.583,2.85.709,3.445Zm3.8-7.687H796.7a1.519,1.519,0,0,0-1.609.988l-4.572,10.917h3.23l.646-1.786h3.952c.088.418.367,1.786.367,1.786h2.85l-2.484-11.9Z" transform="translate(-763.568 -110.511)"/><path class="b" d="M173.436,110.727l-3.015,8.118-.329-1.646a9.112,9.112,0,0,0-4.256-4.99l2.761,10.411h3.255l4.838-11.892h-3.255Z" transform="translate(-162.618 -110.511)"/><path class="c" d="M86.169,110.727H81.216l-.051.241a10.3,10.3,0,0,1,7.473,6.232l-1.077-5.471a1.274,1.274,0,0,0-1.393-1Z" transform="translate(-81.166 -110.511)"/></g></svg>