<svg xmlns="http://www.w3.org/2000/svg" width="54" height="32" viewBox="0 0 54 32"><defs><style>.a{fill:#fff;}.b{fill:#404040;}</style></defs><rect class="a" width="54" height="32" rx="2"/><path class="b" d="M.635-.76V-7.12H2.862a2.925,2.925,0,0,1,1.756.443,1.516,1.516,0,0,1,.6,1.3,1.437,1.437,0,0,1-.24.823,1.388,1.388,0,0,1-.668.522,1.343,1.343,0,0,1,.771.494,1.459,1.459,0,0,1,.282.909,1.678,1.678,0,0,1-.585,1.389,2.635,2.635,0,0,1-1.669.48Zm1.31-2.769v1.717H3.068a1.083,1.083,0,0,0,.723-.221.756.756,0,0,0,.26-.609.8.8,0,0,0-.9-.887Zm0-.926h.97q.992-.017.992-.791a.731.731,0,0,0-.251-.622,1.321,1.321,0,0,0-.793-.19H1.945Zm9.488.66A3.839,3.839,0,0,1,11.1-2.149a2.5,2.5,0,0,1-.95,1.092,2.628,2.628,0,0,1-1.417.384,2.646,2.646,0,0,1-1.411-.38,2.524,2.524,0,0,1-.961-1.085,3.729,3.729,0,0,1-.345-1.623v-.314a3.819,3.819,0,0,1,.339-1.653,2.52,2.52,0,0,1,.957-1.1,2.631,2.631,0,0,1,1.413-.382,2.631,2.631,0,0,1,1.413.382,2.52,2.52,0,0,1,.957,1.1,3.808,3.808,0,0,1,.339,1.649Zm-1.328-.288A2.676,2.676,0,0,0,9.747-5.6a1.167,1.167,0,0,0-1.022-.52,1.168,1.168,0,0,0-1.018.513,2.646,2.646,0,0,0-.363,1.5v.31A2.71,2.71,0,0,0,7.7-2.284a1.164,1.164,0,0,0,1.031.537,1.154,1.154,0,0,0,1.013-.518,2.694,2.694,0,0,0,.358-1.509Zm3.456,2.271h2.782V-.76H12.251V-7.12h1.31Zm7.226-1.7H18.271v1.7h2.953V-.76H16.961V-7.12h4.254v1.061H18.271v1.516h2.516Zm5.946-2.542H24.785v5.3h-1.31v-5.3H21.553V-7.12h5.18ZM32.448-3.8a3.839,3.839,0,0,1-.332,1.647,2.5,2.5,0,0,1-.95,1.092,2.628,2.628,0,0,1-1.417.384,2.646,2.646,0,0,1-1.411-.38,2.524,2.524,0,0,1-.961-1.085,3.729,3.729,0,0,1-.345-1.623v-.314a3.819,3.819,0,0,1,.339-1.653,2.52,2.52,0,0,1,.957-1.1,2.631,2.631,0,0,1,1.413-.382,2.631,2.631,0,0,1,1.413.382,2.52,2.52,0,0,1,.957,1.1,3.808,3.808,0,0,1,.339,1.649ZM31.12-4.084a2.676,2.676,0,0,0-.358-1.52,1.167,1.167,0,0,0-1.022-.52,1.168,1.168,0,0,0-1.018.513,2.646,2.646,0,0,0-.363,1.5v.31a2.71,2.71,0,0,0,.358,1.511,1.164,1.164,0,0,0,1.031.537,1.154,1.154,0,0,0,1.013-.518,2.694,2.694,0,0,0,.358-1.509Z" transform="translate(10.365 13)"/><path class="b" d="M69.523,136.8c-.569,0-1.03.315-1.03.7v9.631c0,.389.461.7,1.03.7s1.03-.315,1.03-.7V137.5C70.554,137.113,70.092,136.8,69.523,136.8Z" transform="translate(-57.832 -120.837)"/><path class="b" d="M69.523,136.8c-.569,0-1.03.315-1.03.7v9.631c0,.389.461.7,1.03.7s1.03-.315,1.03-.7V137.5C70.554,137.113,70.092,136.8,69.523,136.8Z" transform="translate(-34.832 -120.837)"/><path class="b" d="M138.744,136.8c-.569,0-1.03.315-1.03.7v6.435c0,.389.461.7,1.03.7s1.03-.315,1.03-.7V137.5C139.775,137.113,139.313,136.8,138.744,136.8Z" transform="translate(-123.297 -120.837)"/><path class="b" d="M138.744,136.8c-.569,0-1.03.315-1.03.7v6.435c0,.389.461.7,1.03.7s1.03-.315,1.03-.7V137.5C139.775,137.113,139.313,136.8,138.744,136.8Z" transform="translate(-100.297 -120.837)"/><path class="b" d="M207.965,136.8c-.569,0-1.03.315-1.03.7v9.631c0,.389.461.7,1.03.7s1.03-.315,1.03-.7V137.5C209,137.113,208.534,136.8,207.965,136.8Z" transform="translate(-188.763 -120.837)"/><path class="b" d="M207.965,136.8c-.569,0-1.03.315-1.03.7v9.631c0,.389.461.7,1.03.7s1.03-.315,1.03-.7V137.5C209,137.113,208.534,136.8,207.965,136.8Z" transform="translate(-165.763 -120.837)"/><path class="b" d="M277.185,136.8c-.569,0-1.03.315-1.03.7v9.631c0,.389.461.7,1.03.7s1.03-.315,1.03-.7V137.5C278.216,137.113,277.754,136.8,277.185,136.8Z" transform="translate(-254.227 -120.837)"/><path class="b" d="M346.406,136.8c-.569,0-1.03.315-1.03.7v9.631c0,.389.461.7,1.03.7s1.03-.315,1.03-.7V137.5C347.437,137.113,346.975,136.8,346.406,136.8Z" transform="translate(-319.692 -120.837)"/><path class="b" d="M415.626,136.8c-.569,0-1.03.315-1.03.7v6.435c0,.389.461.7,1.03.7s1.03-.315,1.03-.7V137.5C416.657,137.113,416.2,136.8,415.626,136.8Z" transform="translate(-385.156 -120.837)"/><path class="b" d="M138.744,330.423c-.569,0-1.03.315-1.03.7v.554c0,.389.461.7,1.03.7s1.03-.315,1.03-.7v-.554C139.775,330.738,139.313,330.423,138.744,330.423Z" transform="translate(-123.297 -305.385)"/><path class="b" d="M138.744,330.423c-.569,0-1.03.315-1.03.7v.554c0,.389.461.7,1.03.7s1.03-.315,1.03-.7v-.554C139.775,330.738,139.313,330.423,138.744,330.423Z" transform="translate(-100.297 -305.385)"/><path class="b" d="M415.626,330.423c-.569,0-1.03.315-1.03.7v.554c0,.389.461.7,1.03.7s1.03-.315,1.03-.7v-.554C416.657,330.738,416.2,330.423,415.626,330.423Z" transform="translate(-385.156 -305.385)"/></svg>