<svg xmlns="http://www.w3.org/2000/svg" width="65" height="78" viewBox="0 0 65 78"><defs><style>.a{fill:#fff;}.b{fill:#676767;font-size:10px;font-family:OpenSans-SemiBold, Open Sans;font-weight:600;}.c{fill:#90b823;}.d{fill:#007535;}.e{fill:#e1c44a;}.e,.f,.g{fill-rule:evenodd;}.f{fill:#009c4f;}.g{fill:#78c348;}</style></defs><rect class="a" width="65" height="78" rx="2"/><text class="b" transform="translate(14 56)"><tspan x="0" y="0">RA 1000</tspan></text><g transform="translate(5 62)"><path class="c" d="M3.116-36.512,2.8-34.833a1,1,0,0,0,.655-.21,1.063,1.063,0,0,0,.311-.63A.838.838,0,0,0,3.7-36.3a.568.568,0,0,0-.506-.21ZM0-30.931l1.311-7.043H3.7a2.465,2.465,0,0,1,1.8.584A1.669,1.669,0,0,1,5.9-35.8a2.115,2.115,0,0,1-.509,1.054,2.742,2.742,0,0,1-1.069.7l.89,3.121h-2.2l-.429-2.726-.507,2.726Z" transform="translate(0 38.615)"/><path class="c" d="M28.023-26.873h1.115a1.059,1.059,0,0,0-.023-.629.382.382,0,0,0-.381-.21.506.506,0,0,0-.392.2,1.994,1.994,0,0,0-.319.634m2.439,1.365A2.6,2.6,0,0,1,29.5-24.14a2.706,2.706,0,0,1-1.628.5,1.78,1.78,0,0,1-1.57-.673,2.5,2.5,0,0,1-.239-1.918,3.452,3.452,0,0,1,.962-1.939,2.529,2.529,0,0,1,1.808-.69,1.945,1.945,0,0,1,1.643.612A2.31,2.31,0,0,1,30.71-26.4c-.018.1-.032.17-.043.219a1.2,1.2,0,0,1-.038.137H27.869l-.013.067a1.644,1.644,0,0,0-.016.782.361.361,0,0,0,.381.236.57.57,0,0,0,.379-.135,1.048,1.048,0,0,0,.273-.415h1.588" transform="translate(-20.386 31.465)"/><path class="c" d="M51.774-23.858a2.011,2.011,0,0,1-.471.164,2.6,2.6,0,0,1-.547.053,1.606,1.606,0,0,1-1.459-.7,2.591,2.591,0,0,1-.225-1.912,3.444,3.444,0,0,1,.952-1.9,2.392,2.392,0,0,1,1.723-.709,2.463,2.463,0,0,1,.5.048,1.6,1.6,0,0,1,.418.149l-.282,1.515a.622.622,0,0,0-.183-.084.82.82,0,0,0-.214-.026.668.668,0,0,0-.521.27,1.585,1.585,0,0,0-.313.738,1.17,1.17,0,0,0,.031.712.445.445,0,0,0,.439.238.873.873,0,0,0,.2-.026,2.123,2.123,0,0,0,.235-.075l-.287,1.543" transform="translate(-38.441 31.465)"/><path class="c" d="M64.584-33.267l1.43-7.684H67.9l-1.43,7.684H64.584" transform="translate(-50.67 40.951)"/><path class="c" d="M80.24-26.25a2.023,2.023,0,0,0-.032.791q.065.266.294.265a.479.479,0,0,0,.4-.273,2.294,2.294,0,0,0,.266-.783,1.981,1.981,0,0,0,.028-.794c-.046-.181-.145-.273-.3-.273a.472.472,0,0,0-.391.271,2.368,2.368,0,0,0-.265.8m.508,2.47.1-.545a2.576,2.576,0,0,1-.675.521,1.507,1.507,0,0,1-.68.164,1.105,1.105,0,0,1-1.091-.687,3.285,3.285,0,0,1-.083-1.922,4.214,4.214,0,0,1,.794-1.927,1.7,1.7,0,0,1,1.351-.682,1.173,1.173,0,0,1,.622.161,1.488,1.488,0,0,1,.48.514l.1-.536h1.889l-.919,4.94H80.748" transform="translate(-61.371 31.465)"/><path class="c" d="M101.922-23.622l.919-4.94h1.813l-.137.733a2.334,2.334,0,0,1,.74-.627,1.9,1.9,0,0,1,.875-.2,1.087,1.087,0,0,1,.7.205.913.913,0,0,1,.309.624,1.978,1.978,0,0,1,.677-.627,1.8,1.8,0,0,1,.863-.2.986.986,0,0,1,.846.337,1.242,1.242,0,0,1,.13.984l-.691,3.714h-1.889l.535-2.875a.5.5,0,0,0-.023-.342.26.26,0,0,0-.244-.112.362.362,0,0,0-.279.128.716.716,0,0,0-.157.354l-.53,2.846H104.5l.535-2.875a.5.5,0,0,0-.023-.342.259.259,0,0,0-.244-.112.375.375,0,0,0-.286.128.7.7,0,0,0-.16.354l-.53,2.846h-1.874" transform="translate(-79.964 31.307)"/><path class="c" d="M140.673-26.873h1.115a1.06,1.06,0,0,0-.023-.629.382.382,0,0,0-.381-.21.507.507,0,0,0-.392.2,2,2,0,0,0-.319.634m2.439,1.365a2.6,2.6,0,0,1-.965,1.368,2.705,2.705,0,0,1-1.628.5,1.78,1.78,0,0,1-1.57-.673,2.494,2.494,0,0,1-.239-1.918,3.449,3.449,0,0,1,.962-1.939,2.529,2.529,0,0,1,1.808-.69,1.945,1.945,0,0,1,1.643.612,2.309,2.309,0,0,1,.237,1.848c-.018.1-.033.17-.043.219a1.177,1.177,0,0,1-.039.137h-2.759l-.013.067a1.643,1.643,0,0,0-.016.782.361.361,0,0,0,.381.236.569.569,0,0,0,.379-.135,1.046,1.046,0,0,0,.273-.415h1.588" transform="translate(-108.767 31.465)"/><path class="d" d="M161.483-33.391h.825l.068-2.61Zm-2.845,2.46,2.94-7.043h2.337l.313,7.043h-2.021l.035-1.037h-1.227l-.351,1.037Z" transform="translate(-124.461 38.615)"/><path class="d" d="M189.693-35a4.834,4.834,0,0,0-.126,1.5.434.434,0,0,0,.459.405.675.675,0,0,0,.6-.4A5.541,5.541,0,0,0,191.058-35a4.957,4.957,0,0,0,.131-1.509.428.428,0,0,0-.453-.4.686.686,0,0,0-.61.405,5.486,5.486,0,0,0-.433,1.5m.85,4.7-.612-1.008c-.024,0-.061,0-.11,0s-.087,0-.11,0a2.011,2.011,0,0,1-1.895-.955,3.949,3.949,0,0,1-.23-2.7,5.233,5.233,0,0,1,1.234-2.706,2.956,2.956,0,0,1,2.233-.96,1.971,1.971,0,0,1,1.866.957,4,4,0,0,1,.221,2.708,6.342,6.342,0,0,1-.57,1.751,4.126,4.126,0,0,1-.977,1.254l.75.9-1.8.753" transform="translate(-147.078 39.124)"/><path class="d" d="M215.246-33.449l.842-4.525h2.072l-.877,4.713a.661.661,0,0,0,.032.455.359.359,0,0,0,.334.147.527.527,0,0,0,.394-.147.864.864,0,0,0,.2-.455l.877-4.713H221.2l-.842,4.525a3.4,3.4,0,0,1-.994,2.019,3.057,3.057,0,0,1-2.067.639,2.184,2.184,0,0,1-1.818-.639,2.528,2.528,0,0,1-.238-2.019" transform="translate(-168.804 38.615)"/><path class="d" d="M241.11-30.931l1.311-7.043H244.5l-1.31,7.043H241.11" transform="translate(-189.165 38.615)"/></g><g transform="translate(13 6)"><path class="e" d="M18.693,8.394A21.579,21.579,0,0,1,14.9,21.122c-3.073,4.782-4.737,8.391-3.485,14.184a12.206,12.206,0,0,1,2.32-2.854,11.9,11.9,0,0,0,4.139,3.512c-3.871-9.949,2.864-13.345,4.291-22.117A20.8,20.8,0,0,0,22.137,8c-1.152.178-2.281.3-3.444.394" transform="translate(-1.009 -0.883)"/><path class="e" d="M24.7,21l-2.875.886c-2.048,8.308.018,13.691,2.75,15.718a15.512,15.512,0,0,1,.667-4.564,12.268,12.268,0,0,0,5.367.527C27.489,31.385,25.365,29.072,24.7,21" transform="translate(-2.27 -2.523)"/><path class="f" d="M17.856,1l2.005,3.123L23.015,1.9l.8,3.61,3.739-1.029-.5,3.661,3.87.289L29.176,11.7l3.536,1.576-2.775,2.487,2.775,2.673-3.472,1.4,1.68,3.447-3.749.148.381,3.8-3.574-1.122-.963,3.7-2.969-2.261-2.191,3.156-2-3.123L12.7,29.816l-.8-3.61L8.159,27.235l.5-3.66-3.87-.292,1.744-3.272L3,18.435l2.775-2.487L3,13.276l3.471-1.4L4.792,8.427,8.541,8.28l-.381-3.8L11.734,5.6,12.7,1.9l2.969,2.26Z"/><path class="g" d="M8,16.486A10.486,10.486,0,1,0,18.486,6,10.487,10.487,0,0,0,8,16.486" transform="translate(-0.631 -0.631)"/><g transform="translate(5.622 2.748)"><path d="M6,9.745c4.084,3,7.861,4.616,12.006,12.48C23.914,12.613,29.049,6.743,35.712,3,28.187,5.6,24.42,8.243,18.363,15.39,13.174,12.107,11.933,11.794,6,9.745Z" transform="translate(-6 -3)"/><path class="a" d="M6,9.745c4.084,3,7.861,4.616,12.006,12.48C23.914,12.613,29.049,6.743,35.712,3,28.187,5.6,24.42,8.243,18.363,15.39,13.174,12.107,11.933,11.794,6,9.745Z" transform="translate(-6 -3)"/></g></g></svg>