<svg xmlns="http://www.w3.org/2000/svg" width="54" height="32" viewBox="0 0 54 32"><defs><style>.a{fill:#fff;}.b{fill:#f79410;}.c{fill:#ff5f00;}.d{fill:#eb001b;}.e{fill:#f79e1b;}</style></defs><rect class="a" width="54" height="32" rx="1"/><g transform="translate(9 5)"><path class="b" d="M-4.247-1.955V-2.4h-.115l-.133.3-.133-.3h-.116v.442h.082v-.333L-4.537-2h.085l.125-.288v.334Zm-.731,0v-.367h.148V-2.4h-.377v.075h.148v.367Z" transform="translate(40.759 20.409)"/><path class="c" d="M3352.973,2165.489H3343v-17.917h9.969Z" transform="translate(-3329.56 -2145.134)"/><path class="d" d="M-62.309-50.414a11.376,11.376,0,0,1,4.352-8.959A11.345,11.345,0,0,0-65-61.809,11.394,11.394,0,0,0-76.392-50.414,11.394,11.394,0,0,0-65-39.019a11.345,11.345,0,0,0,7.042-2.436,11.376,11.376,0,0,1-4.352-8.959" transform="translate(76.392 61.809)"/><path class="e" d="M-81.565-50.414A11.394,11.394,0,0,1-92.959-39.019,11.348,11.348,0,0,1-100-41.456a11.374,11.374,0,0,0,4.353-8.959A11.374,11.374,0,0,0-100-59.373a11.348,11.348,0,0,1,7.042-2.436A11.394,11.394,0,0,1-81.565-50.414" transform="translate(118.425 61.809)"/></g></svg>