<svg xmlns="http://www.w3.org/2000/svg" width="54" height="32" viewBox="0 0 54 32"><defs><style>.a{fill:#fff;}.b{fill:#0079be;}</style></defs><rect class="a" width="54" height="32" rx="2"/><g transform="translate(489 -4.94)"><path class="b" d="M16.763,22.669c6.2.03,11.851-5.053,11.851-11.236A11.576,11.576,0,0,0,16.763,0H11.431A11.181,11.181,0,0,0,0,11.433,11.357,11.357,0,0,0,11.431,22.669Z" transform="translate(-476 9.94)"/><path class="a" d="M34.445,20.83A10.377,10.377,0,1,0,44.82,31.208,10.377,10.377,0,0,0,34.445,20.83ZM27.869,31.208h0a6.588,6.588,0,0,1,4.221-6.138V37.345A6.585,6.585,0,0,1,27.869,31.208Zm8.929,6.14h0V25.069a6.573,6.573,0,0,1,0,12.278Z" transform="translate(-498.988 -9.953)"/></g></svg>