<svg xmlns="http://www.w3.org/2000/svg" width="54" height="32" viewBox="0 0 54 32"><defs><style>.a{fill:#3b3536;}.b{fill:#ffca05;}.b,.c,.d,.e{fill-rule:evenodd;}.c{fill:#00a4df;}.d{fill:#ee4123;}.e{fill:#fff;}</style></defs><rect class="a" width="54" height="32" rx="2"/><g transform="translate(6 8)"><path class="b" d="M10.759,3.546A4.9,4.9,0,0,1,12.287,3.3a4.8,4.8,0,0,1,4.724,3.779l3.3-.66A8.152,8.152,0,0,0,12.288,0a8.326,8.326,0,0,0-2.6.412Z" transform="translate(-4.125)"/><path class="c" d="M2.8,15.667l2.262-2.5a4.7,4.7,0,0,1,0-7.143L2.8,3.524a7.987,7.987,0,0,0,0,12.143" transform="translate(0 -1.5)"/><path class="d" d="M17.011,15.857a4.8,4.8,0,0,1-4.721,3.777,4.876,4.876,0,0,1-1.53-.243L9.69,22.528a8.335,8.335,0,0,0,2.6.412,8.154,8.154,0,0,0,8.025-6.419Z" transform="translate(-4.125 -6.75)"/><path class="e" d="M39.044,12.254l0,0-.094-.063a2.648,2.648,0,0,1-1.22,1.026,2.362,2.362,0,0,1-2.615-.264l-.061.094,0,0L33.9,14.768a4.9,4.9,0,0,0,.91.5,4.958,4.958,0,0,0,5.975-1.843l-1.745-1.172ZM35.469,8.008a2.49,2.49,0,0,0-1.5,2.641L38.481,8.7A2.389,2.389,0,0,0,35.469,8.008Zm-3,5.242a5.886,5.886,0,0,1-.342-.662,4.882,4.882,0,0,1-.106-3.678,4.844,4.844,0,0,1,2.6-2.852,4.984,4.984,0,0,1,4.6.337,4.929,4.929,0,0,1,2.053,2.489c.063.147.118.3.172.438L32.472,13.25ZM44.584,3.524v9.568l1.481.6-.841,1.972-1.635-.683a1.86,1.86,0,0,1-.806-.68,2.145,2.145,0,0,1-.316-1.186V3.524h2.116Zm3.836,7.13a2.712,2.712,0,0,0,.919,2.04l-1.517,1.7a5.014,5.014,0,0,1,.005-7.487l1.519,1.7a2.711,2.711,0,0,0-.926,2.042Zm2.7,2.715a2.705,2.705,0,0,0,2.648-2.163l2.23.457A4.973,4.973,0,0,1,49.538,15.4l.726-2.167a2.721,2.721,0,0,0,.856.14Zm.007-7.712A4.984,4.984,0,0,1,56,9.663l-2.231.454a2.7,2.7,0,0,0-3.5-2.035l-.72-2.169a4.951,4.951,0,0,1,1.578-.255Z" transform="translate(-13.5 -1.5)"/></g></svg>