<svg xmlns="http://www.w3.org/2000/svg" width="30" height="30" viewBox="0 0 30 30">
  <path id="Icon_material-shopping-cart" data-name="Icon material-shopping-cart" d="M10.667,27.333a3,3,0,1,0,3,3,3,3,0,0,0-3-3Zm-9-24v3h3l5.4,11.385L8.042,21.393a2.9,2.9,0,0,0-.375,1.44,3.009,3.009,0,0,0,3,3h18v-3H11.3a.371.371,0,0,1-.375-.375l.045-.18,1.35-2.445H23.492a2.986,2.986,0,0,0,2.625-1.545l5.37-9.735a1.465,1.465,0,0,0,.18-.72,1.5,1.5,0,0,0-1.5-1.5H7.982l-1.41-3h-4.9Zm24,24a3,3,0,1,0,3,3,3,3,0,0,0-3-3Z" transform="translate(-1.667 -3.333)" fill="#333"/>
</svg>
