<svg xmlns="http://www.w3.org/2000/svg" width="67.326" height="24.488" viewBox="0 0 67.326 24.488"><defs><style>.a{fill:#646363;}</style></defs><g transform="translate(-2.217 -2.363)"><path class="a" d="M28.713,2.363H7.326A2.2,2.2,0,0,0,5.381,5.592L7.521,9.643H3.642a1.426,1.426,0,0,0-1.262,2.091L9.262,24.758a1.426,1.426,0,0,0,2.521,0l1.869-3.518L16,25.679a2.2,2.2,0,0,0,3.889,0L30.605,5.51a2.142,2.142,0,0,0-1.892-3.147Zm-9.607,8.619-4.622,8.7a.949.949,0,0,1-1.677,0L8.229,11.019a.949.949,0,0,1,.836-1.394h9.226a.924.924,0,0,1,.815,1.357Z"/><path class="a" d="M742.613,133.99h-2.34v8.018a.276.276,0,0,1-.276.276h-1.8a.276.276,0,0,1-.276-.276V133.99h-2.353a.265.265,0,0,1-.276-.262V132.31a.265.265,0,0,1,.276-.262h7.048a.277.277,0,0,1,.289.262v1.419A.277.277,0,0,1,742.613,133.99Z" transform="translate(-691.151 -122.268)"/><path class="a" d="M893.676,140.147a18.067,18.067,0,0,1-2.78.179c-1.777,0-3.346-.455-3.346-2.961V132.79c0-2.506,1.584-2.947,3.36-2.947a17.839,17.839,0,0,1,2.767.179c.193.027.276.1.276.276v1.283a.276.276,0,0,1-.276.276h-2.9c-.647,0-.881.22-.881.937v1.254h3.675a.276.276,0,0,1,.276.276v1.308a.276.276,0,0,1-.276.276h-3.675v1.46c0,.716.234.937.881.937h2.9a.276.276,0,0,1,.276.276v1.281c0,.178-.083.261-.276.288Z" transform="translate(-834.704 -120.19)"/><path class="a" d="M1031.565,142.264h-2.19a.366.366,0,0,1-.358-.206l-1.9-3.014-1.72,2.948c-.1.165-.193.276-.343.276h-2.038a.182.182,0,0,1-.206-.179.255.255,0,0,1,.027-.1l2.983-4.975-3.014-4.724a.2.2,0,0,1-.027-.083.2.2,0,0,1,.206-.179h2.217c.151,0,.262.138.343.262l1.762,2.782,1.705-2.782a.447.447,0,0,1,.343-.262h2.038a.2.2,0,0,1,.206.179.2.2,0,0,1-.027.083l-3,4.753,3.128,4.946a.308.308,0,0,1,.041.138C1031.745,142.209,1031.676,142.264,1031.565,142.264Z" transform="translate(-962.201 -122.251)"/><path class="a" d="M562.446,132.5a.213.213,0,0,0-.208.172l-2,7.4c-.027.152-.069.206-.193.206s-.165-.057-.193-.206l-2-7.4a.213.213,0,0,0-.208-.172h-1.968a.213.213,0,0,0-.207.261s2.442,8.486,2.469,8.569a2.073,2.073,0,0,0,2.123,1.494,2.137,2.137,0,0,0,2.122-1.491c.039-.114,2.426-8.573,2.426-8.573a.213.213,0,0,0-.207-.26l-1.956,0Z" transform="translate(-521.608 -122.697)"/><path class="a" d="M28.713,2.363H7.326A2.2,2.2,0,0,0,5.381,5.592L7.521,9.643H3.642a1.426,1.426,0,0,0-1.262,2.091L9.262,24.758a1.426,1.426,0,0,0,2.521,0l1.869-3.518L16,25.679a2.2,2.2,0,0,0,3.889,0L30.605,5.51a2.142,2.142,0,0,0-1.892-3.147Zm-9.607,8.619-4.622,8.7a.949.949,0,0,1-1.677,0L8.229,11.019a.949.949,0,0,1,.836-1.394h9.226a.924.924,0,0,1,.815,1.357Z"/></g></svg>